<svg width="292" height="146" viewBox="0 0 292 146" fill="none" xmlns="http://www.w3.org/2000/svg">
<path d="M2.57186 2.2628L2.25391 142.397L288.623 143.047L288.941 2.91255L2.57186 2.2628Z" fill="white"/>
<path d="M4.83345 4.51322L286.7 5.17369L286.384 140.806L4.51822 140.145L4.83345 4.51322ZM0.340243 0L0 144.638L290.873 145.319L291.213 0.680486L0.340243 0Z" fill="black"/>
<path d="M263.017 44.3864C262.977 43.6609 262.797 42.9654 262.582 42.2899C262.172 41.024 261.556 39.8932 260.781 38.8674C260.636 38.6873 260.485 38.5072 260.335 38.3421C259.555 37.4564 258.759 36.5808 257.989 35.6852C254.366 31.4972 250.653 27.4043 247.006 23.2463C246.586 22.771 246.155 22.3056 245.675 21.9003C244.444 20.8646 243.078 20.2191 241.567 19.9439C241.352 19.9039 241.137 19.8589 240.916 19.8539C240.846 19.8539 240.771 19.8138 240.701 19.7938L208.158 19.7188L88.4677 19.4336L51.5313 19.3535C51.4562 19.3735 51.3812 19.4086 51.3061 19.4086C51.091 19.4136 50.8758 19.4586 50.6607 19.4986C49.1496 19.7638 47.7786 20.4043 46.5427 21.435C46.0624 21.8403 45.6321 22.3006 45.2068 22.776C41.5392 26.9139 37.8065 30.9918 34.1639 35.1598C33.3884 36.0504 32.5928 36.9211 31.8022 37.8067C31.6521 37.9718 31.497 38.1519 31.3519 38.3321C30.5713 39.3528 29.9509 40.4786 29.5356 41.7445C29.3154 42.42 29.1253 43.1105 29.0903 43.836C29.0903 43.9211 29.0553 44.0011 29.0403 44.0862L28.9102 99.0754C28.9252 99.1605 28.9602 99.2355 28.9602 99.3206C28.9952 100.051 29.1803 100.742 29.3955 101.417C29.8058 102.683 30.4212 103.814 31.1968 104.84C31.3419 105.025 31.492 105.2 31.6421 105.375C32.4227 106.256 33.2182 107.131 33.9888 108.027C37.6114 112.22 41.324 116.308 44.9716 120.466C45.3919 120.946 45.8222 121.411 46.3026 121.812C47.5335 122.847 48.8994 123.493 50.4105 123.773C50.6257 123.813 50.8408 123.853 51.056 123.858C51.131 123.863 51.2061 123.898 51.2811 123.918L112.175 124.058C154.935 124.158 197.696 124.258 240.451 124.358C240.526 124.338 240.601 124.308 240.671 124.303C240.896 124.298 241.107 124.258 241.327 124.223C242.838 123.953 244.209 123.313 245.445 122.282C245.925 121.887 246.355 121.421 246.781 120.941C250.448 116.803 254.181 112.735 257.824 108.557C258.599 107.667 259.395 106.796 260.185 105.915C260.335 105.74 260.49 105.57 260.636 105.385C261.416 104.364 262.037 103.238 262.452 101.972C262.672 101.297 262.857 100.612 262.897 99.881C262.897 99.7959 262.932 99.7209 262.947 99.6358L263.077 44.6466C263.062 44.5615 263.027 44.4815 263.027 44.3964L263.017 44.3864Z" stroke="#1B1918" stroke-width="4.50321" stroke-miterlimit="10"/>
<path d="M64.3916 99.6505C52.7132 99.1201 46.1636 95.9078 40.9648 90.4339L48.3851 80.3667C51.6525 85.2502 57.2765 87.9522 64.4166 88.4725L64.4416 78.2202C54.8648 76.4339 42.6861 74.0522 42.7161 61.5333C42.7361 52.1216 50.4866 45.2467 64.5217 44.356L64.5367 37.2109L70.0856 37.2259L70.0706 44.286C81.834 44.8164 87.5381 48.6141 92.5717 53.9179L84.8161 63.3096C81.0485 58.1759 76.4302 55.8943 70.0456 55.459L70.0206 66.2967C79.5974 68.083 91.8612 70.7199 91.8311 83.489C91.8061 93.321 82.3794 99.1001 69.9455 99.6555L69.9305 106.801L64.3816 106.786L64.3966 99.6405L64.3916 99.6505ZM64.4966 55.7842C60.3787 56.3646 58.1021 58.1209 58.0971 60.5576C58.0921 63.0794 60.779 64.1802 64.4716 65.1959L64.4916 55.7842H64.4966ZM76.5302 84.1344C76.5352 81.5276 73.7633 80.2617 69.9856 79.331L69.9655 88.4075C74.2536 87.9972 76.5252 86.5762 76.5302 84.1344Z" fill="#1B1918"/>
<path d="M222.157 100.021C210.479 99.4904 203.929 96.2781 198.73 90.8042L206.151 80.737C209.418 85.6205 215.042 88.3224 222.182 88.8428L222.207 78.5905C212.63 76.8042 200.452 74.4225 200.482 61.8985C200.502 52.4868 208.252 45.6119 222.287 44.7213L222.302 37.5762L227.851 37.5912L227.836 44.6512C239.6 45.1816 245.304 48.9793 250.337 54.2831L242.582 63.6748C238.814 58.5411 234.196 56.2595 227.811 55.8242L227.786 66.6669C237.363 68.4532 249.627 71.0901 249.597 83.8592C249.577 93.6912 240.145 99.4704 227.711 100.026L227.696 107.171L222.147 107.156L222.162 100.011L222.157 100.021ZM222.257 56.1544C218.139 56.7348 215.863 58.4911 215.858 60.9278C215.853 63.4496 218.54 64.5504 222.232 65.5661L222.252 56.1544H222.257ZM234.296 84.5047C234.301 81.8978 231.529 80.6319 227.751 79.7012L227.731 88.7777C232.019 88.3674 234.291 86.9464 234.296 84.5047Z" fill="#1B1918"/>
<path d="M179.164 56.1995C179.114 60.8278 178.959 65.4511 178.433 70.0494C177.823 75.4182 176.837 80.717 175.116 85.8507C174.05 89.0329 172.309 91.8499 170.317 94.5219C167.05 98.905 163.177 102.703 159.024 106.235C155.062 109.603 150.859 112.645 146.52 115.507C146.01 115.842 145.67 115.812 145.18 115.487C138.46 111.029 132.09 106.135 126.496 100.301C123.044 96.7034 119.937 92.8407 117.78 88.2974C116.519 85.6405 115.804 82.8035 115.153 79.9514C114.067 75.1931 113.467 70.3696 113.147 65.5061C112.902 61.7485 112.796 57.9808 112.871 54.2181C112.972 49.1995 113.187 44.1859 113.757 39.1974C113.972 37.336 114.172 35.4797 114.368 33.6184C114.403 33.2581 114.553 33.053 114.893 32.9079C119.726 30.8664 124.765 29.6055 129.959 28.92C135.182 28.2295 140.436 27.9193 145.7 27.7242C148.847 27.6091 151.989 27.8242 155.127 28.0844C158.699 28.3796 162.242 28.875 165.749 29.5805C169.652 30.3711 173.465 31.4769 177.147 33.0079C177.518 33.1631 177.703 33.3832 177.748 33.7885C178.333 38.7921 178.829 43.8006 178.984 48.8392C179.059 51.291 179.174 53.7427 179.164 56.1945V56.1995ZM172.579 59.6219C172.574 56.4247 172.454 53.6026 172.284 50.7806C172.104 47.7735 171.824 44.7713 171.493 41.7792C171.438 41.3039 171.268 41.0037 170.798 40.8135C169.127 40.143 167.425 39.5526 165.689 39.0773C162.047 38.0816 158.334 37.4661 154.576 37.1309C151.239 36.8307 147.896 36.5555 144.534 36.7706C141.187 36.9908 137.839 37.1509 134.507 37.5312C130.094 38.0415 125.796 39.0272 121.678 40.7234C121.242 40.9036 121.082 41.1738 121.027 41.5941C120.367 46.7027 120.007 51.8364 119.876 56.9851C119.786 60.4876 119.912 63.9851 120.147 67.4825C120.397 71.2052 120.952 74.8828 121.728 78.5304C122.618 82.7134 124.225 86.5562 126.841 89.9736C128.843 92.5855 131.14 94.9221 133.451 97.2488C137.064 100.886 141.227 103.823 145.47 106.666C145.785 106.876 146.02 106.871 146.325 106.656C147.201 106.045 148.102 105.47 148.982 104.869C153.971 101.447 158.719 97.7392 162.777 93.2159C165.024 90.7091 167.09 88.0672 168.521 85.0001C169.882 82.093 170.563 78.9758 171.163 75.8485C172.214 70.3696 172.519 64.8207 172.569 59.6219H172.579Z" fill="#1B1918"/>
<path d="M145.89 58.7919C148.497 58.7969 151.103 58.7919 153.71 58.822C154.191 58.822 154.456 58.6668 154.666 58.2365C157.003 53.4982 159.359 48.7698 161.706 44.0364C162.221 42.9957 162.757 41.9649 163.257 40.9192C163.437 40.5439 163.652 40.4639 164.058 40.5639C165.774 40.9842 167.435 41.5546 169.096 42.1551C169.472 42.2902 169.597 42.5203 169.637 42.9006C169.917 45.5075 170.137 48.1143 170.312 50.7312C170.552 54.3037 170.677 57.8763 170.582 61.4538C170.417 67.6433 169.817 73.7726 168.276 79.7969C167.26 83.7748 165.309 87.2122 162.702 90.3294C158.003 95.9485 152.314 100.417 146.27 104.475C145.995 104.66 145.79 104.665 145.514 104.475C142.172 102.213 138.955 99.7962 135.903 97.1543C135.577 96.8741 135.507 96.6239 135.732 96.2437C136.008 95.7783 136.228 95.278 136.468 94.7876C136.748 94.2172 136.723 94.1872 136.068 94.1722C135.562 94.1622 135.052 94.1722 134.552 94.1172C133.066 93.947 132.215 92.8112 132.53 91.3352C133.056 88.8834 133.636 86.4417 134.196 83.9949C135.612 77.8105 137.023 71.6211 138.449 65.4367C138.574 64.8963 138.504 64.441 138.159 64.0207C137.564 63.3002 136.933 62.6047 136.368 61.8591C135.622 60.8784 135.722 59.7926 136.573 59.1772C137.053 58.832 137.609 58.7669 138.179 58.7669C140.746 58.7719 143.318 58.7769 145.885 58.7869L145.89 58.7919ZM147.556 60.258C144.369 60.253 141.181 60.243 137.994 60.243C137.759 60.243 137.474 60.1879 137.344 60.4581C137.223 60.7183 137.404 60.9285 137.559 61.1136C138.019 61.659 138.494 62.1894 138.95 62.7347C139.74 63.6854 140.096 64.6661 139.785 65.9871C138.029 73.4024 136.358 80.8327 134.672 88.263C134.411 89.4138 134.046 90.5446 133.951 91.7204C133.891 92.471 134.111 92.7162 134.822 92.7162C139.865 92.7362 144.909 92.7412 149.958 92.7512C150.498 92.7512 151.008 92.6061 151.439 92.2908C152.69 91.3652 153.925 90.4245 155.151 89.4638C155.557 89.1436 155.502 88.8484 155.016 88.6983C154.501 88.5382 153.955 88.4581 153.435 88.308C152.389 88.0128 152.064 87.4624 152.289 86.4217C152.489 85.506 152.7 84.5954 152.91 83.6847C154.581 76.4045 156.252 69.1243 157.918 61.8441C158.208 60.5832 157.973 60.288 156.677 60.288C153.64 60.278 150.603 60.273 147.561 60.268L147.556 60.258Z" fill="#1B1918"/>
<path d="M138.275 48.3144C138.29 42.8605 142.718 38.4374 148.157 38.4424C153.546 38.4474 158.054 42.9606 158.014 48.3695C157.974 53.6783 153.826 58.2165 148.107 58.2115C142.283 58.2115 138.185 53.3981 138.275 48.3144ZM148.082 56.6704C152.735 56.6954 156.483 53.0078 156.503 48.3795C156.523 43.7762 152.82 40.1036 148.212 39.9985C143.814 39.8984 139.776 43.5861 139.781 48.2794C139.786 52.9627 143.404 56.6454 148.082 56.6704Z" fill="#1B1918"/>
</svg>
