<svg xmlns="http://www.w3.org/2000/svg" viewBox="910 2181 288 292" width="288" height="292" fill="none"><path d="M1194.4 2350.9C1193.1 2347.6 1191.4 2344.5 1189.4 2341.5L1170.1 2312.4L1183.1 2279.9C1188.5 2266.4 1188.4 2251.6 1182.8 2238.2V2238.2C1180.3 2232.3 1176.8 2226.8 1172.5 2222.2C1168.3 2217.5 1163.2 2213.5 1157.5 2210.6C1149.7 2206.5 1141 2204.4 1132.2 2204.4C1127.2 2204.4 1122.2 2205.1 1117.4 2206.4L1083.8 2215.8L1056.9 2193.4C1048.9 2186.7 1039.2 2182.4 1028.9 2181.1C1026.6 2180.8 1024.2 2180.6 1021.9 2180.6C1014.6 2180.6 1007.4 2182 1000.7 2184.9C991.4 2188.8 983.4 2195.1 977.5 2203.2C971 2212 967.4 2222.4 967 2233.4L965.5 2268.4L936 2287C924.5 2294.2 916.1 2305.4 912.4 2318.5C912.4 2318.5 912.4 2318.5 912.4 2318.5C909 2330.4 909.8 2343.3 914.5 2354.8C920.3 2368.8 931.8 2379.9 946.1 2385.2L978.8 2397.4L987.3 2431.3H987.4C988 2434 988.9 2436.6 989.9 2439.1C995.6 2452.8 1006.8 2463.7 1020.5 2469.1C1027 2471.6 1033.7 2472.9 1040.6 2472.9C1047.9 2472.9 1054.9 2471.5 1061.6 2468.7C1070.2 2465.1 1077.8 2459.3 1083.6 2452L1105.2 2424.6L1140.1 2426.9C1141.3 2427 1142.5 2427 1143.8 2427C1151.1 2427 1158.2 2425.6 1164.9 2422.8C1178.2 2417.3 1188.5 2406.9 1194.2 2393.6C1200 2380.1 1200.1 2364.5 1194.4 2350.9Z" fill="#FFF9EB"/><path d="M1158.8 2365.8C1158.4 2364.8 1157.8 2363.9 1157.2 2363L1128.8 2320.1C1128.5 2319.7 1128.3 2319.3 1128.1 2318.8C1127.4 2317.1 1127.4 2315.1 1128.1 2313.3L1147.2 2265.4C1148.9 2261.2 1148.7 2256.8 1147.2 2253.2C1145.7 2249.6 1143 2246.7 1139.6 2244.9C1136.2 2243.1 1132 2242.5 1127.8 2243.7L1078.3 2257.6C1076 2258.2 1073.5 2257.7 1071.6 2256.2L1032.2 2223.1C1029.7 2221.1 1026.8 2219.9 1023.9 2219.5C1021 2219.1 1018.1 2219.5 1015.5 2220.6C1012.9 2221.8 1010.4 2223.6 1008.6 2226.1C1006.9 2228.5 1005.7 2231.6 1005.6 2234.9L1003.5 2286.4C1003.4 2288.9 1002.1 2291.1 1000 2292.3L956.5 2319.8C953 2322 950.6 2325.4 949.6 2329C948.5 2332.6 948.8 2336.4 950.2 2339.9C951.8 2343.8 955 2347.2 959.5 2348.8L1007.7 2366.8C1009.6 2367.5 1011.1 2368.9 1011.9 2370.8C1012 2371.1 1012.1 2371.5 1012.2 2371.8L1024.8 2421.8C1025 2422.6 1025.3 2423.4 1025.6 2424.2C1027.3 2428.4 1030.7 2431.5 1034.6 2433C1038.4 2434.5 1042.8 2434.5 1046.8 2432.9C1049.2 2431.9 1051.5 2430.2 1053.2 2427.9L1085.2 2387.5C1085.9 2386.5 1087 2385.8 1088.1 2385.3C1089.1 2384.9 1090.2 2384.7 1091.4 2384.8L1142.7 2388.2C1145.3 2388.4 1147.8 2387.9 1150 2387C1154 2385.3 1157.1 2382.2 1158.7 2378.3C1160.3 2374.6 1160.5 2370 1158.8 2365.8V2365.8ZM1150.5 2374.9C1149.7 2376.6 1148.3 2378.1 1146.6 2378.8C1145.6 2379.2 1144.5 2379.4 1143.3 2379.3L1092 2375.9C1089.4 2375.7 1086.9 2376.1 1084.6 2377.1C1082.1 2378.2 1079.9 2379.8 1078.2 2382L1046.3 2422.4C1045.4 2423.5 1044.4 2424.2 1043.4 2424.7C1041.6 2425.4 1039.6 2425.4 1037.8 2424.7C1036 2424 1034.6 2422.7 1033.8 2420.8C1033.7 2420.4 1033.5 2420.1 1033.4 2419.7L1020.9 2369.7C1020.7 2368.9 1020.4 2368.1 1020.1 2367.4C1018.4 2363.3 1015 2360 1010.8 2358.4L962.6 2340.5C960.5 2339.7 959.2 2338.2 958.4 2336.5C957.8 2334.9 957.7 2333.1 958.1 2331.5C958.6 2329.9 959.6 2328.5 961.3 2327.4L1004.8 2299.9C1009.3 2297.1 1012.1 2292.2 1012.4 2286.9L1014.5 2235.4C1014.6 2233.8 1015.1 2232.4 1015.9 2231.4C1016.6 2230.3 1017.7 2229.4 1019 2228.9C1020.2 2228.4 1021.5 2228.2 1022.8 2228.4C1024 2228.6 1025.3 2229.1 1026.5 2230.1L1065.9 2263.1C1070 2266.5 1075.5 2267.7 1080.7 2266.2L1130.2 2252.4C1132.2 2251.8 1133.9 2252.1 1135.5 2252.9C1137 2253.7 1138.3 2255.1 1138.9 2256.7C1139.6 2258.3 1139.7 2260.2 1138.9 2262.2L1119.8 2310C1118.2 2314 1118.3 2318.4 1119.9 2322.3C1120.3 2323.3 1120.8 2324.2 1121.4 2325.1L1149.8 2368C1150.1 2368.4 1150.4 2368.9 1150.5 2369.3C1151.3 2371.2 1151.2 2373.1 1150.5 2374.9V2374.9Z" fill="#1B1435"/></svg>