<svg xmlns="http://www.w3.org/2000/svg" viewBox="575 2181 288 292" width="288" height="292" fill="none"><path d="M859.1 2350.9C857.8 2347.6 856.1 2344.5 854.1 2341.5L834.8 2312.4L847.8 2279.9C853.2 2266.4 853.1 2251.6 847.5 2238.2V2238.2C845 2232.3 841.5 2226.8 837.3 2222.2C833 2217.5 827.9 2213.5 822.2 2210.6C814.4 2206.5 805.7 2204.4 796.9 2204.4C791.9 2204.4 786.9 2205.1 782.1 2206.4L748.5 2215.8L721.6 2193.4C713.6 2186.7 703.9 2182.4 693.6 2181.1C691.3 2180.8 688.9 2180.6 686.6 2180.6C679.3 2180.6 672.1 2182 665.4 2184.9C656.1 2188.8 648.1 2195.1 642.2 2203.2C635.7 2212 632.1 2222.4 631.7 2233.4L630.2 2268.4L600.7 2287C589.2 2294.2 580.8 2305.4 577.1 2318.5C577.1 2318.5 577.1 2318.5 577.1 2318.5C573.7 2330.4 574.5 2343.3 579.2 2354.8C585 2368.8 596.5 2379.9 610.8 2385.2L643.5 2397.4L652 2431.3H652.1C652.7 2434 653.6 2436.6 654.6 2439.1C660.3 2452.8 671.5 2463.7 685.3 2469.1C691.7 2471.6 698.4 2472.9 705.3 2472.9C712.6 2472.9 719.6 2471.5 726.3 2468.7C734.9 2465.1 742.5 2459.3 748.3 2452L769.9 2424.6L804.8 2426.9C806 2427 807.3 2427 808.5 2427C815.8 2427 822.9 2425.6 829.6 2422.8C842.9 2417.3 853.3 2406.9 858.9 2393.6C864.7 2380.1 864.8 2364.5 859.1 2350.9Z" fill="#FFF9EB"/><path d="M823.5 2365.8C823.1 2364.8 822.6 2363.9 822 2363L793.5 2320.1C793.2 2319.7 793 2319.3 792.8 2318.8C792.1 2317.1 792.1 2315.1 792.8 2313.3L811.9 2265.4C813.6 2261.2 813.4 2256.8 811.9 2253.2C810.4 2249.6 807.7 2246.7 804.3 2244.9C800.9 2243.1 796.7 2242.5 792.5 2243.7L743 2257.6C740.7 2258.2 738.2 2257.7 736.3 2256.2L696.9 2223.1C694.4 2221.1 691.5 2219.9 688.6 2219.5C685.7 2219.1 682.9 2219.5 680.3 2220.6C677.6 2221.8 675.1 2223.6 673.4 2226.1C671.6 2228.5 670.4 2231.6 670.3 2234.9L668.2 2286.4C668.1 2288.9 666.8 2291.1 664.7 2292.3L621.2 2319.8C617.7 2322 615.3 2325.4 614.3 2329C613.2 2332.6 613.5 2336.4 614.9 2339.9C616.5 2343.8 619.7 2347.2 624.2 2348.8L672.4 2366.8C674.3 2367.5 675.8 2368.9 676.6 2370.8C676.7 2371.1 676.8 2371.5 676.9 2371.8L689.5 2421.8C689.7 2422.6 690 2423.4 690.3 2424.2C692.1 2428.4 695.4 2431.5 699.3 2433C703.1 2434.5 707.5 2434.5 711.5 2432.9C713.9 2431.9 716.2 2430.2 718 2427.9L749.9 2387.5C750.6 2386.5 751.7 2385.8 752.8 2385.3C753.8 2384.9 754.9 2384.7 756.1 2384.8L807.4 2388.2C810 2388.4 812.5 2387.9 814.7 2387C818.7 2385.3 821.8 2382.2 823.4 2378.3C825 2374.6 825.2 2370 823.5 2365.8V2365.8ZM815.2 2374.9C814.4 2376.6 813 2378.1 811.3 2378.8C810.3 2379.2 809.2 2379.4 808 2379.3L756.7 2375.9C754.1 2375.7 751.6 2376.1 749.3 2377.1C746.8 2378.2 744.6 2379.8 742.9 2382L711 2422.4C710.1 2423.5 709.1 2424.2 708.1 2424.7C706.3 2425.4 704.3 2425.4 702.5 2424.7C700.8 2424 699.3 2422.7 698.5 2420.8C698.4 2420.4 698.2 2420.1 698.2 2419.7L685.6 2369.7C685.4 2368.9 685.1 2368.1 684.8 2367.4C683.1 2363.3 679.7 2360 675.5 2358.4L627.3 2340.5C625.2 2339.7 623.9 2338.2 623.1 2336.5C622.5 2334.9 622.4 2333.1 622.8 2331.5C623.3 2329.9 624.3 2328.5 626 2327.4L669.5 2299.9C674 2297.1 676.8 2292.2 677.1 2286.9L679.2 2235.4C679.3 2233.8 679.8 2232.4 680.6 2231.4C681.3 2230.3 682.4 2229.4 683.7 2228.9C684.9 2228.4 686.2 2228.2 687.5 2228.4C688.7 2228.6 690 2229.1 691.2 2230.1L730.6 2263.1C734.7 2266.5 740.3 2267.7 745.4 2266.2L794.9 2252.4C796.9 2251.8 798.6 2252.1 800.2 2252.9C801.7 2253.7 803 2255.1 803.6 2256.7C804.3 2258.3 804.4 2260.2 803.6 2262.2L784.5 2310C782.9 2314 783 2318.4 784.6 2322.3C785 2323.3 785.5 2324.2 786.1 2325.1L814.5 2368C814.8 2368.4 815.1 2368.9 815.2 2369.3C816 2371.2 815.9 2373.1 815.2 2374.9V2374.9Z" fill="#E62070"/></svg>