<svg xmlns="http://www.w3.org/2000/svg" viewBox="1884 3406 328 224" width="328" height="224" fill="none"><path d="M2210.9 3525.7C2209.4 3519.3 2207.1 3513.3 2203.9 3507.9C2199.3 3500 2192.8 3493.4 2185.1 3488.7C2184.8 3488.5 2184.4 3488.3 2184.1 3488.1C2179.7 3473.7 2171 3460.9 2159.2 3451.5C2146.2 3441.2 2129.9 3435.6 2113.4 3435.6C2110.7 3435.6 2108 3435.8 2105.4 3436.1C2099.4 3429.6 2092.5 3423.9 2084.8 3419.3C2069.9 3410.3 2052.8 3405.5 2035.4 3405.5C2028.2 3405.5 2021.1 3406.3 2014.1 3407.9C1994 3412.4 1976.3 3423 1962.8 3438.4C1955.5 3446.8 1949.8 3456.2 1945.9 3466.3C1926.8 3470.7 1910.5 3482.1 1899.9 3498.3C1889 3515 1885.4 3534.9 1889.8 3554.2C1890 3555.5 1890.4 3556.7 1890.7 3558C1887.6 3563.9 1885.6 3570.3 1884.8 3576.9C1883.9 3583.7 1884.3 3590.8 1885.9 3597.7C1887.2 3603.7 1889.1 3608 1890 3610L1890.1 3610.1L1891.2 3612.5C1896.3 3622.9 1906.8 3629.3 1918.1 3629.3C1920.2 3629.3 1922.4 3629.1 1924.5 3628.6L2189 3570.7C2202.7 3567.7 2212.5 3555.6 2212.5 3541.5V3538.8C2212.4 3536.5 2212.2 3531.7 2210.9 3525.7ZM1922.3 3594.5L1922.9 3594.2H1922.9L1922.3 3594.5V3594.5Z" fill="#FFF9EB"/><path d="M2182.6 3538.9C2182.6 3538.3 2182.5 3535.7 2181.8 3532.3C2181.1 3529.6 2180.1 3526.3 2178.2 3523.1C2176.3 3519.8 2173.5 3516.6 2169.5 3514.2C2165.1 3511.5 2160.6 3510.7 2157.3 3510.4C2157.4 3506.9 2157.1 3503.3 2156.3 3499.8C2150.9 3476.1 2127.4 3461.2 2103.7 3466.6C2100 3467.4 2096.4 3468.7 2093.2 3470.4C2080.1 3444.7 2050.5 3430.3 2020.7 3437C1992.1 3443.5 1972 3467.3 1969.7 3494.6C1964.3 3493.9 1958.7 3494 1953 3495.3C1941 3498 1931.1 3505.2 1924.9 3514.7C1918.8 3524.1 1916.2 3535.9 1918.9 3547.6C1920.1 3553.1 1922.4 3558.1 1925.4 3562.4C1923.1 3564.2 1921.2 3566 1919.7 3568C1916.5 3572.1 1914.9 3576.6 1914.4 3580.6C1913.9 3584.7 1914.4 3588.3 1915 3591.2C1915.8 3594.7 1916.9 3596.9 1917 3597.1L1918.1 3599.4L2182.6 3541.6V3538.9ZM1921.6 3578.3C1922.2 3576.2 1923.2 3574.1 1924.9 3572C1926.5 3570 1928.7 3567.9 1931.8 3566L1935.1 3564.1L1932.6 3561.1C1929.2 3556.9 1926.6 3551.8 1925.3 3546.2C1923.1 3536.2 1925.2 3526.3 1930.5 3518.3C1935.7 3510.2 1944.1 3504.1 1954.5 3501.7C1960.5 3500.4 1966.4 3500.4 1972 3501.8L1975.9 3502.7L1976 3498.6C1976.7 3472.8 1995.1 3449.5 2022.1 3443.4C2050.1 3437.1 2077.9 3451.6 2088.7 3476.3L2090.2 3479.8L2093.5 3477.8C2097 3475.6 2100.9 3473.9 2105.1 3473C2115.2 3470.7 2125.2 3472.8 2133.3 3477.9C2141.4 3483 2147.6 3491.2 2149.8 3501.2C2150.8 3505.3 2151 3509.4 2150.6 3513.4L2150.1 3517.3L2154.1 3517.1C2156.3 3516.9 2161.3 3516.9 2166.1 3519.8C2169 3521.6 2171 3523.9 2172.5 3526.4C2173.9 3528.9 2174.8 3531.5 2175.3 3533.7C2175.5 3534.7 2175.7 3535.6 2175.8 3536.3L1922 3591.8C1921.8 3591.2 1921.6 3590.5 1921.4 3589.7C1920.7 3586.7 1920.4 3582.5 1921.6 3578.3H1921.6Z" fill="#E9571B"/><path d="M2003.5 3504.9C2004.1 3502.9 2005.9 3498.2 2009.4 3493.4C2012.9 3488.7 2018.1 3484 2025.9 3481.8C2026.5 3481.6 2027.2 3481.4 2027.8 3481.2C2039.5 3478.6 2051.9 3482.7 2060 3491.9L2065 3487.6C2055.3 3476.5 2040.4 3471.7 2026.4 3474.8C2025.6 3475 2024.8 3475.2 2024 3475.4C2018.7 3477 2014.3 3479.6 2010.7 3482.5C2005.4 3486.9 2002 3492.1 1999.9 3496.3C1998.8 3498.4 1998.1 3500.3 1997.6 3501.7C1997.1 3503.1 1996.9 3503.9 1996.8 3504.2L2003.2 3505.8C2003.2 3505.8 2003.3 3505.4 2003.5 3504.9L2003.5 3504.9Z" fill="#E9571B"/><path d="M2057.4 3513.9L2062.7 3517.8C2063.2 3517.1 2065.3 3514.3 2069 3511.2C2072.7 3508.2 2077.9 3505 2084.5 3503.5C2086.5 3503.1 2088.6 3502.8 2090.9 3502.7C2098.8 3502.4 2105.3 3504.8 2110.1 3507.4C2112.4 3508.8 2114.3 3510.2 2115.8 3511.4C2117.2 3512.6 2118.1 3513.5 2118.5 3513.9L2123.2 3509.3C2122.8 3508.8 2121.6 3507.7 2120 3506.3C2117.5 3504.2 2113.7 3501.6 2108.7 3499.5C2103.8 3497.4 2097.7 3495.8 2090.7 3496.1C2088 3496.2 2085.4 3496.6 2083 3497.1C2075.2 3498.9 2069.1 3502.7 2064.8 3506.2C2060.5 3509.7 2058 3513 2057.4 3513.9L2057.4 3513.9Z" fill="#E9571B"/><path d="M1977.4 3565L1978.2 3565.1V3565.1L1977.4 3565Z" fill="#E9571B"/><path d="M1984.2 3549.8C1986.7 3545.8 1990.2 3541.7 1995.1 3538.1C2000 3534.4 2006.2 3531.3 2014.5 3529.5C2022.8 3527.6 2029.6 3527.9 2035.3 3529.2C2043.8 3531.3 2049.8 3535.9 2053.7 3540.1C2055.6 3542.1 2057 3544.1 2057.9 3545.5C2058.4 3546.2 2058.7 3546.7 2058.9 3547.1C2059 3547.3 2059.1 3547.5 2059.2 3547.6L2059.2 3547.6V3547.7L2060.4 3547L2065.1 3544.8C2065 3544.5 2061.4 3537.1 2053.1 3530.7C2048.9 3527.4 2043.5 3524.5 2036.8 3522.8C2030.2 3521.2 2022.2 3521 2013 3523.1C2003.8 3525.1 1996.5 3528.7 1990.9 3533C1982.4 3539.4 1977.6 3547.2 1974.9 3553.3C1972.2 3559.5 1971.6 3564.1 1971.6 3564.3L1978.1 3565.1C1978.2 3564.9 1979.2 3557.7 1984.2 3549.8L1984.2 3549.8Z" fill="#E9571B"/></svg>