<svg xmlns="http://www.w3.org/2000/svg" viewBox="2216 2607 287 237" width="287" height="237" fill="none"><path d="M2501.8 2704.6C2501.1 2702.9 2500.2 2701.3 2499.2 2699.8C2500.9 2694.6 2500.7 2688.9 2498.4 2684C2496 2678.7 2491.6 2674.7 2486.1 2672.7L2478.3 2669.9C2475.9 2669 2473.4 2668.6 2471 2668.6C2466.1 2668.6 2461.3 2670.3 2457.5 2673.4C2455.9 2671 2454.2 2668.7 2452.4 2666.5C2444.7 2657.3 2434.8 2650.8 2423.8 2647.8C2419.1 2646.5 2414.2 2645.8 2409.2 2645.8C2405.9 2645.8 2402.7 2646.1 2399.4 2646.6C2396.2 2647.2 2392.9 2648 2389.7 2649.1C2380.2 2652.4 2371.1 2658.1 2362.8 2665.7C2359.5 2654.7 2354.6 2645.3 2348.1 2637.6C2340.4 2628.4 2330.5 2621.9 2319.5 2618.9C2314.8 2617.5 2309.9 2616.9 2304.9 2616.9C2301.6 2616.9 2298.4 2617.2 2295.1 2617.7C2291.9 2618.3 2288.6 2619.1 2285.4 2620.2C2283.2 2621 2280.9 2621.9 2278.7 2623C2277.5 2619.9 2275.7 2617.1 2273.3 2614.9C2272.1 2613.7 2270.7 2612.7 2269.2 2611.8C2267 2610.6 2264.6 2609.8 2262.1 2609.4L2262 2609.3C2261.7 2609.3 2261.5 2609.2 2261.3 2609.2L2254.6 2607.9C2253.2 2607.6 2251.8 2607.5 2250.5 2607.5C2246.1 2607.5 2241.8 2608.8 2238.1 2611.4C2233.7 2614.5 2230.7 2619.2 2229.5 2624.4C2227.8 2625.1 2226.3 2626.1 2224.8 2627.2C2220.3 2630.7 2217.5 2635.9 2216.8 2641.6C2216.2 2646.3 2216.3 2651.1 2217.1 2655.8C2218.3 2664.4 2221.7 2672.6 2226.8 2679.5C2227.3 2680.2 2227.9 2681 2228.5 2681.7C2226.6 2686.6 2224.9 2691.6 2223.4 2696.8C2216.9 2720.6 2216.5 2745.1 2222.4 2765.6C2225.7 2776.8 2230.7 2786.5 2237.3 2794.4C2245 2803.6 2254.9 2810.1 2265.9 2813.1C2270.6 2814.4 2275.6 2815.1 2280.5 2815.1C2287 2815.1 2293.6 2814 2300 2811.8C2309.5 2808.5 2318.6 2802.8 2327 2795.2C2330.2 2806.2 2335.2 2815.6 2341.6 2823.3C2349.3 2832.5 2359.2 2839 2370.2 2842C2374.9 2843.3 2379.8 2844 2384.8 2844C2391.3 2844 2397.9 2842.9 2404.3 2840.7C2418.4 2835.8 2431.8 2825.7 2442.9 2811.5C2453.3 2798.2 2461.4 2781.8 2466.3 2764.1C2466.3 2764.1 2466.3 2764.1 2466.3 2764.1C2467.6 2759.3 2468.7 2754.5 2469.5 2749.8C2470.7 2749.4 2472 2748.9 2473.2 2748.4C2481.1 2745.1 2488.2 2739.9 2493.7 2733.1C2496.8 2729.4 2499.3 2725.4 2501.2 2721.1C2503.6 2715.9 2503.8 2709.9 2501.8 2704.6Z" fill="#1B1435"/><path d="M2342.3 2672.4C2340 2664.3 2336.4 2657.1 2331.7 2651.4C2326.9 2645.8 2320.9 2641.6 2313.8 2639.6C2306.8 2637.7 2299.5 2638.1 2292.5 2640.6C2284.4 2643.3 2276.7 2648.6 2269.8 2655.7C2266.6 2653.9 2264.3 2651.8 2262.6 2649.5C2259.7 2645.4 2258.6 2640.7 2258.4 2636.9C2258.2 2635 2258.3 2633.4 2258.4 2632.2C2258.4 2631.7 2258.5 2631.2 2258.5 2631L2258.6 2630.7V2630.6L2257.6 2630.4L2250.4 2629C2250.4 2629.4 2249.2 2635.2 2250.8 2642.7C2251.6 2646.4 2253.1 2650.5 2255.9 2654.3C2257.9 2657.2 2260.7 2659.8 2264.2 2662.1C2264 2662.3 2263.8 2662.5 2263.7 2662.7C2262.2 2664.6 2260.7 2666.6 2259.3 2668.7C2256.8 2667.6 2253.4 2665.4 2250.7 2661.7C2248.1 2658.2 2246.9 2654.5 2246.5 2651.4C2246 2648.3 2246.2 2645.9 2246.4 2645.1L2238.1 2644.1C2238 2645.3 2237.7 2648.6 2238.3 2652.7C2238.9 2656.7 2240.4 2661.8 2244 2666.7C2247.6 2671.4 2251.7 2674.2 2255 2675.8C2250.5 2683.8 2246.8 2692.8 2244.1 2702.5C2238.4 2723.2 2238.4 2743.3 2243.1 2759.6C2245.4 2767.7 2249 2774.8 2253.7 2780.5C2258.5 2786.2 2264.5 2790.4 2271.6 2792.4C2278.6 2794.3 2285.9 2793.8 2292.9 2791.4C2303.5 2787.8 2313.3 2779.9 2321.7 2769.3C2330.1 2758.6 2336.9 2744.9 2341.2 2729.5C2346.9 2708.8 2347 2688.6 2342.3 2672.4L2342.3 2672.4ZM2307.2 2772.8C2301.8 2778 2295.9 2781.6 2290.3 2783.5C2284.6 2785.5 2279.1 2785.8 2273.8 2784.3C2268.6 2782.9 2264 2779.8 2260.1 2775.2C2254.3 2768.3 2250.2 2758 2248.7 2745.7C2248.6 2744.7 2248.5 2743.6 2248.4 2742.5C2251.5 2751.2 2257 2757.4 2264.3 2759.4C2280.5 2763.9 2299.6 2746.2 2306.8 2719.9C2307.3 2718.2 2307.7 2716.4 2308.1 2714.7C2303.6 2721.2 2296.2 2724.5 2289.1 2722.6C2279.8 2720 2274.7 2709.2 2277.7 2698.3C2280.7 2687.5 2290.7 2680.8 2299.9 2683.4C2303.7 2684.4 2306.8 2686.9 2308.9 2690.1C2306.8 2676.8 2300.4 2666.8 2290.7 2664.1C2283.3 2662.1 2275.4 2664.6 2268.3 2670.4C2271.4 2666.1 2274.7 2662.3 2278.2 2659.1C2283.7 2654 2289.5 2650.3 2295.2 2648.4C2300.8 2646.5 2306.3 2646.2 2311.6 2647.6C2316.9 2649.1 2321.4 2652.2 2325.3 2656.8C2331.1 2663.7 2335.2 2674 2336.7 2686.3C2338.2 2698.5 2337.2 2712.7 2333.2 2727.2C2327.9 2746.5 2318.2 2762.6 2307.2 2772.8L2307.2 2772.8Z" fill="#FFF9EB"/><path d="M2474.1 2708.8C2473.7 2709.6 2472.7 2711.8 2470.7 2714.2C2468.7 2716.6 2465.9 2719.2 2461.8 2720.8C2457.1 2722.8 2452.6 2722.7 2449.9 2722.3C2449.8 2719.5 2449.6 2716.8 2449.2 2714.2C2453.7 2714.2 2457.7 2713.3 2461.2 2711.8C2467.7 2709 2472.1 2704.3 2474.8 2700.3C2477.6 2696.4 2478.7 2693.2 2478.8 2692.9L2471 2690.1C2470.9 2690.4 2469.1 2695.1 2465.1 2699.2C2463.1 2701.2 2460.6 2703.1 2457.6 2704.3C2454.9 2705.4 2451.7 2706.1 2447.8 2705.8C2447.4 2704.3 2447.1 2702.8 2446.6 2701.3C2444.3 2693.2 2440.7 2686 2436 2680.3C2431.2 2674.7 2425.2 2670.5 2418.1 2668.5C2411.1 2666.6 2403.8 2667.1 2396.8 2669.5C2386.2 2673.1 2376.4 2680.9 2368 2691.6C2359.6 2702.3 2352.8 2715.9 2348.5 2731.4C2342.8 2752.1 2342.7 2772.3 2347.4 2788.5C2349.7 2796.6 2353.3 2803.8 2358.1 2809.4C2362.8 2815.1 2368.9 2819.3 2375.9 2821.3C2382.9 2823.2 2390.3 2822.7 2397.3 2820.3C2407.8 2816.7 2417.7 2808.8 2426 2798.2C2434.4 2787.5 2441.3 2773.8 2445.6 2758.4C2448.2 2748.9 2449.6 2739.6 2449.9 2730.7C2453.6 2731 2459.1 2730.9 2465 2728.5C2470.6 2726.2 2474.5 2722.7 2477.1 2719.4C2479.8 2716.3 2481.1 2713.3 2481.7 2712.2L2474.1 2708.8L2474.1 2708.8ZM2411.5 2801.8C2406 2806.9 2400.2 2810.5 2394.6 2812.5C2388.9 2814.4 2383.4 2814.7 2378.1 2813.3C2372.8 2811.8 2368.3 2808.7 2364.4 2804.1C2358.6 2797.2 2354.5 2786.9 2353 2774.6C2352.9 2773.6 2352.8 2772.5 2352.7 2771.5C2355.8 2780.1 2361.3 2786.3 2368.6 2788.4C2384.2 2792.7 2402.4 2776.5 2410.2 2751.8C2406.7 2753.6 2402.7 2754.1 2398.9 2753.1C2389.6 2750.5 2384.4 2739.6 2387.4 2728.8C2390.4 2718 2400.4 2711.3 2409.7 2713.9C2410.6 2714.1 2411.5 2714.5 2412.4 2714.9C2409.7 2703.8 2403.6 2695.5 2395 2693.1C2387.6 2691 2379.7 2693.6 2372.6 2699.3C2375.7 2695.1 2379 2691.3 2382.5 2688.1C2388 2683 2393.8 2679.3 2399.4 2677.4C2405.1 2675.4 2410.6 2675.1 2415.9 2676.6C2421.2 2678 2425.7 2681.1 2429.6 2685.7C2435.4 2692.6 2439.5 2702.9 2441 2715.2C2442.5 2727.5 2441.6 2741.7 2437.5 2756.2C2432.2 2775.5 2422.5 2791.6 2411.5 2801.8L2411.5 2801.8Z" fill="#FFF9EB"/></svg>