<svg xmlns="http://www.w3.org/2000/svg" viewBox="577 509 307 104" width="307" height="104" fill="none"><path d="M722.3 613.3C699.5 610.7 690.8 607.3 690.2 600.7C689.5 592.2 704.2 587.5 732.3 579.4C742 576.6 755.7 572.7 761.5 569.8C755.6 568.2 743 567.3 737 566.9L734.8 566.7C707 564.7 674.5 560.9 648 556.5C635.5 554.4 625 552.3 617.7 550.4C607.8 547.9 603 545.9 603 541.5C602.9 533.8 611 530.8 781.9 520.4C791.7 519.8 801.5 519.2 811 518.7L576.6 517.3L576.7 508.9L829.7 510.4C845.9 510.5 858.4 510.7 866.8 511.1C878.9 511.6 883.9 511.8 884 516.6C884.1 521.2 879.5 521.7 872.5 522.5C867.7 523.1 860.8 523.7 851.2 524.4C833.4 525.7 808.6 527.2 782.4 528.8C725.9 532.2 644.3 537.2 618.1 541.9C637 547 686.2 554.8 735.4 558.4L737.6 558.5C760.4 560.1 771.2 561.6 772 568.6C772.9 576.1 761.2 579.8 734.6 587.5C723 590.8 704.2 596.2 699.4 599.9C701.5 601 707.4 603.1 723.3 604.9L722.3 613.2V613.3Z" fill="#E62070"/></svg>